<svg xmlns="http://www.w3.org/2000/svg" xmlns:xlink="http://www.w3.org/1999/xlink" width="500" zoomAndPan="magnify" viewBox="0 0 375 374.999991" height="500" preserveAspectRatio="xMidYMid meet" version="1.2"><defs><clipPath id="37d356e33f"><path d="M 135.472656 142.734375 L 239.722656 142.734375 L 239.722656 198.984375 L 135.472656 198.984375 Z M 135.472656 142.734375 "/></clipPath><clipPath id="790110f816"><path d="M 234.359375 150.910156 C 233.449219 151.058594 219.097656 153.433594 205.289062 158.6875 C 200.34375 151.914062 195.148438 147.023438 189.609375 143.921875 L 187.492188 142.734375 L 185.375 143.921875 C 179.835938 147.023438 174.640625 151.914062 169.699219 158.6875 C 155.890625 153.433594 141.539062 151.058594 140.625 150.910156 L 135.605469 150.097656 L 135.605469 197.03125 L 144.261719 197.03125 L 144.261719 160.414062 C 149.199219 161.445312 157.097656 163.316406 164.839844 166.089844 C 162.582031 169.886719 160.375 174.105469 158.207031 178.773438 L 166.058594 182.417969 C 168.324219 177.53125 170.613281 173.203125 172.933594 169.40625 C 176.03125 170.867188 178.898438 172.496094 181.289062 174.304688 C 177.503906 178.828125 175.757812 183.03125 175.96875 187.074219 C 176.105469 189.628906 177.144531 193.371094 181.351562 196.703125 C 183.078125 198.066406 185.285156 198.75 187.496094 198.75 C 189.710938 198.75 191.925781 198.066406 193.648438 196.695312 C 197.847656 193.367188 198.886719 189.625 199.015625 187.074219 C 199.226562 183.03125 197.480469 178.828125 193.699219 174.304688 C 196.089844 172.503906 198.957031 170.871094 202.054688 169.410156 C 204.371094 173.207031 206.660156 177.53125 208.925781 182.417969 L 216.78125 178.773438 C 214.613281 174.105469 212.40625 169.890625 210.148438 166.09375 C 217.890625 163.324219 225.789062 161.449219 230.722656 160.417969 L 230.722656 197.03125 L 239.378906 197.03125 L 239.378906 150.097656 Z M 190.371094 186.625 C 190.335938 187.351562 190.074219 188.480469 188.269531 189.914062 C 187.964844 190.132812 187.027344 190.132812 186.726562 189.914062 C 184.914062 188.480469 184.652344 187.347656 184.613281 186.621094 C 184.5625 185.597656 184.941406 183.59375 187.492188 180.390625 C 190.042969 183.59375 190.425781 185.601562 190.371094 186.625 Z M 187.492188 168.175781 C 184.71875 165.949219 181.410156 163.96875 177.847656 162.207031 C 180.984375 158.160156 184.1875 155.03125 187.492188 152.785156 C 190.796875 155.03125 194.003906 158.160156 197.140625 162.207031 C 193.578125 163.96875 190.269531 165.953125 187.492188 168.175781 Z M 187.492188 168.175781 "/></clipPath><linearGradient x1="-0.0000177386" gradientTransform="matrix(0.532752,0,0,0.532752,135.606156,142.735317)" y1="52.570999" x2="194.787976" gradientUnits="userSpaceOnUse" y2="52.570999" id="1c3a6a0cfb"><stop style="stop-color:#a7f545;stop-opacity:1;" offset="0"/><stop style="stop-color:#a7f545;stop-opacity:1;" offset="0.015625"/><stop style="stop-color:#a8f546;stop-opacity:1;" offset="0.03125"/><stop style="stop-color:#a8f547;stop-opacity:1;" offset="0.046875"/><stop style="stop-color:#a8f648;stop-opacity:1;" offset="0.0625"/><stop style="stop-color:#a9f648;stop-opacity:1;" offset="0.078125"/><stop style="stop-color:#a9f649;stop-opacity:1;" offset="0.09375"/><stop style="stop-color:#aaf64a;stop-opacity:1;" offset="0.109375"/><stop style="stop-color:#aaf64a;stop-opacity:1;" offset="0.125"/><stop style="stop-color:#aaf64b;stop-opacity:1;" offset="0.140625"/><stop style="stop-color:#abf74c;stop-opacity:1;" offset="0.15625"/><stop style="stop-color:#abf74c;stop-opacity:1;" offset="0.171875"/><stop style="stop-color:#acf74d;stop-opacity:1;" offset="0.1875"/><stop style="stop-color:#acf74e;stop-opacity:1;" offset="0.203125"/><stop style="stop-color:#adf74f;stop-opacity:1;" offset="0.21875"/><stop style="stop-color:#adf74f;stop-opacity:1;" offset="0.234375"/><stop style="stop-color:#adf750;stop-opacity:1;" offset="0.25"/><stop style="stop-color:#aef851;stop-opacity:1;" offset="0.265625"/><stop style="stop-color:#aef851;stop-opacity:1;" offset="0.28125"/><stop style="stop-color:#aff852;stop-opacity:1;" offset="0.296875"/><stop style="stop-color:#aff853;stop-opacity:1;" offset="0.3125"/><stop style="stop-color:#aff853;stop-opacity:1;" offset="0.328125"/><stop style="stop-color:#b0f854;stop-opacity:1;" offset="0.34375"/><stop style="stop-color:#b0f955;stop-opacity:1;" offset="0.359375"/><stop style="stop-color:#b1f956;stop-opacity:1;" offset="0.375"/><stop style="stop-color:#b1f956;stop-opacity:1;" offset="0.390625"/><stop style="stop-color:#b1f957;stop-opacity:1;" offset="0.40625"/><stop style="stop-color:#b2f958;stop-opacity:1;" offset="0.421875"/><stop style="stop-color:#b2f958;stop-opacity:1;" offset="0.4375"/><stop style="stop-color:#b3f959;stop-opacity:1;" offset="0.453125"/><stop style="stop-color:#b3fa5a;stop-opacity:1;" offset="0.46875"/><stop style="stop-color:#b3fa5a;stop-opacity:1;" offset="0.484375"/><stop style="stop-color:#b4fa5b;stop-opacity:1;" offset="0.5"/><stop style="stop-color:#b4fa5c;stop-opacity:1;" offset="0.515625"/><stop style="stop-color:#b5fa5d;stop-opacity:1;" offset="0.53125"/><stop style="stop-color:#b5fa5d;stop-opacity:1;" offset="0.546875"/><stop style="stop-color:#b5fb5e;stop-opacity:1;" offset="0.5625"/><stop style="stop-color:#b6fb5f;stop-opacity:1;" offset="0.578125"/><stop style="stop-color:#b6fb5f;stop-opacity:1;" offset="0.59375"/><stop style="stop-color:#b7fb60;stop-opacity:1;" offset="0.609375"/><stop style="stop-color:#b7fb61;stop-opacity:1;" offset="0.625"/><stop style="stop-color:#b7fb62;stop-opacity:1;" offset="0.640625"/><stop style="stop-color:#b8fc62;stop-opacity:1;" offset="0.65625"/><stop style="stop-color:#b8fc63;stop-opacity:1;" offset="0.671875"/><stop style="stop-color:#b9fc64;stop-opacity:1;" offset="0.6875"/><stop style="stop-color:#b9fc64;stop-opacity:1;" offset="0.703125"/><stop style="stop-color:#bafc65;stop-opacity:1;" offset="0.71875"/><stop style="stop-color:#bafc66;stop-opacity:1;" offset="0.734375"/><stop style="stop-color:#bafc66;stop-opacity:1;" offset="0.75"/><stop style="stop-color:#bbfd67;stop-opacity:1;" offset="0.765625"/><stop style="stop-color:#bbfd68;stop-opacity:1;" offset="0.78125"/><stop style="stop-color:#bcfd69;stop-opacity:1;" offset="0.796875"/><stop style="stop-color:#bcfd69;stop-opacity:1;" offset="0.8125"/><stop style="stop-color:#bcfd6a;stop-opacity:1;" offset="0.828125"/><stop style="stop-color:#bdfd6b;stop-opacity:1;" offset="0.84375"/><stop style="stop-color:#bdfe6b;stop-opacity:1;" offset="0.859375"/><stop style="stop-color:#befe6c;stop-opacity:1;" offset="0.875"/><stop style="stop-color:#befe6d;stop-opacity:1;" offset="0.890625"/><stop style="stop-color:#befe6d;stop-opacity:1;" offset="0.90625"/><stop style="stop-color:#bffe6e;stop-opacity:1;" offset="0.921875"/><stop style="stop-color:#bffe6f;stop-opacity:1;" offset="0.9375"/><stop style="stop-color:#c0fe70;stop-opacity:1;" offset="0.953125"/><stop style="stop-color:#c0ff70;stop-opacity:1;" offset="0.96875"/><stop style="stop-color:#c0ff71;stop-opacity:1;" offset="0.984375"/><stop style="stop-color:#c1ff72;stop-opacity:1;" offset="1"/></linearGradient></defs><g id="156984d0a7"><rect x="0" width="375" y="0" height="374.999991" style="fill:#ffffff;fill-opacity:1;stroke:none;"/><rect x="0" width="375" y="0" height="374.999991" style="fill:#191919;fill-opacity:1;stroke:none;"/><g clip-rule="nonzero" clip-path="url(#37d356e33f)"><g clip-rule="nonzero" clip-path="url(#790110f816)"><path style=" stroke:none;fill-rule:nonzero;fill:url(#1c3a6a0cfb);" d="M 135.605469 142.734375 L 135.605469 198.75 L 239.378906 198.75 L 239.378906 142.734375 Z M 135.605469 142.734375 "/></g></g><g style="fill:#ffffff;fill-opacity:1;"><g transform="translate(146.936728, 228.043886)"><path style="stroke:none" d="M 7.875 -3.859375 C 7.875 -2.359375 7.492188 -1.285156 6.734375 -0.640625 C 5.984375 -0.00390625 4.804688 0.3125 3.203125 0.3125 C 2.859375 0.3125 2.375 0.257812 1.75 0.15625 C 1.125 0.0625 0.609375 -0.0664062 0.203125 -0.234375 L 1.078125 -2.796875 C 1.296875 -2.679688 1.644531 -2.554688 2.125 -2.421875 C 2.613281 -2.296875 2.992188 -2.234375 3.265625 -2.234375 C 3.765625 -2.234375 4.128906 -2.300781 4.359375 -2.4375 C 4.585938 -2.582031 4.75 -2.820312 4.84375 -3.15625 C 4.9375 -3.5 4.984375 -3.992188 4.984375 -4.640625 L 4.984375 -14.15625 L 7.875 -14.15625 Z M 7.875 -3.859375 "/></g></g><g style="fill:#ffffff;fill-opacity:1;"><g transform="translate(156.390188, 228.043886)"><path style="stroke:none" d="M 3.65625 -4.671875 C 3.707031 -3.722656 3.941406 -3.039062 4.359375 -2.625 C 4.773438 -2.207031 5.429688 -2 6.328125 -2 C 6.835938 -2 7.289062 -2.0625 7.6875 -2.1875 C 8.082031 -2.320312 8.425781 -2.570312 8.71875 -2.9375 L 10.6875 -1.53125 C 10.25 -0.914062 9.6875 -0.453125 9 -0.140625 C 8.320312 0.160156 7.390625 0.3125 6.203125 0.3125 C 4.429688 0.3125 3.109375 -0.148438 2.234375 -1.078125 C 1.367188 -2.003906 0.9375 -3.40625 0.9375 -5.28125 C 0.9375 -9.125 2.65625 -11.046875 6.09375 -11.046875 C 7.625 -11.046875 8.789062 -10.613281 9.59375 -9.75 C 10.394531 -8.882812 10.796875 -7.625 10.796875 -5.96875 L 10.796875 -4.671875 Z M 8.171875 -6.5 C 8.171875 -8.125 7.457031 -8.9375 6.03125 -8.9375 C 5.5625 -8.9375 5.175781 -8.859375 4.875 -8.703125 C 4.582031 -8.546875 4.34375 -8.304688 4.15625 -7.984375 C 3.976562 -7.671875 3.835938 -7.175781 3.734375 -6.5 Z M 8.171875 -6.5 "/></g></g><g style="fill:#ffffff;fill-opacity:1;"><g transform="translate(168.084241, 228.043886)"><path style="stroke:none" d="M 9.671875 -3.0625 C 9.671875 -2.351562 9.492188 -1.742188 9.140625 -1.234375 C 8.785156 -0.734375 8.273438 -0.347656 7.609375 -0.078125 C 6.953125 0.179688 6.203125 0.3125 5.359375 0.3125 C 3.117188 0.3125 1.59375 -0.3125 0.78125 -1.5625 L 2.734375 -2.9375 C 3.054688 -2.5 3.425781 -2.207031 3.84375 -2.0625 C 4.269531 -1.914062 4.722656 -1.84375 5.203125 -1.84375 C 6.453125 -1.84375 7.078125 -2.207031 7.078125 -2.9375 C 7.078125 -3.257812 6.898438 -3.503906 6.546875 -3.671875 C 6.191406 -3.847656 5.632812 -4.03125 4.875 -4.21875 C 3.445312 -4.53125 2.441406 -4.972656 1.859375 -5.546875 C 1.285156 -6.117188 1 -6.863281 1 -7.78125 C 1 -8.726562 1.363281 -9.507812 2.09375 -10.125 C 2.820312 -10.738281 3.890625 -11.046875 5.296875 -11.046875 C 6.265625 -11.046875 7.113281 -10.890625 7.84375 -10.578125 C 8.570312 -10.273438 9.132812 -9.816406 9.53125 -9.203125 L 7.5625 -7.796875 C 7.09375 -8.515625 6.328125 -8.875 5.265625 -8.875 C 4.710938 -8.875 4.296875 -8.78125 4.015625 -8.59375 C 3.734375 -8.40625 3.59375 -8.164062 3.59375 -7.875 C 3.59375 -7.59375 3.71875 -7.367188 3.96875 -7.203125 C 4.226562 -7.035156 4.726562 -6.863281 5.46875 -6.6875 C 6.695312 -6.382812 7.570312 -6.082031 8.09375 -5.78125 C 8.613281 -5.488281 9.003906 -5.117188 9.265625 -4.671875 C 9.535156 -4.234375 9.671875 -3.695312 9.671875 -3.0625 Z M 9.671875 -3.0625 "/></g></g><g style="fill:#ffffff;fill-opacity:1;"><g transform="translate(178.581265, 228.043886)"><path style="stroke:none" d="M 8.3125 0 L 8.3125 -1.375 C 7.851562 -0.882812 7.285156 -0.476562 6.609375 -0.15625 C 5.941406 0.15625 5.296875 0.3125 4.671875 0.3125 C 3.460938 0.3125 2.613281 -0.0195312 2.125 -0.6875 C 1.644531 -1.363281 1.40625 -2.320312 1.40625 -3.5625 L 1.40625 -10.734375 L 4.046875 -10.734375 L 4.046875 -4.8125 C 4.046875 -4.0625 4.085938 -3.484375 4.171875 -3.078125 C 4.265625 -2.671875 4.410156 -2.390625 4.609375 -2.234375 C 4.804688 -2.085938 5.101562 -2.015625 5.5 -2.015625 C 6.28125 -2.015625 7.21875 -2.53125 8.3125 -3.5625 L 8.3125 -10.734375 L 10.953125 -10.734375 L 10.953125 0 Z M 8.3125 0 "/></g></g><g style="fill:#ffffff;fill-opacity:1;"><g transform="translate(191.032413, 228.043886)"><path style="stroke:none" d="M 9.671875 -3.0625 C 9.671875 -2.351562 9.492188 -1.742188 9.140625 -1.234375 C 8.785156 -0.734375 8.273438 -0.347656 7.609375 -0.078125 C 6.953125 0.179688 6.203125 0.3125 5.359375 0.3125 C 3.117188 0.3125 1.59375 -0.3125 0.78125 -1.5625 L 2.734375 -2.9375 C 3.054688 -2.5 3.425781 -2.207031 3.84375 -2.0625 C 4.269531 -1.914062 4.722656 -1.84375 5.203125 -1.84375 C 6.453125 -1.84375 7.078125 -2.207031 7.078125 -2.9375 C 7.078125 -3.257812 6.898438 -3.503906 6.546875 -3.671875 C 6.191406 -3.847656 5.632812 -4.03125 4.875 -4.21875 C 3.445312 -4.53125 2.441406 -4.972656 1.859375 -5.546875 C 1.285156 -6.117188 1 -6.863281 1 -7.78125 C 1 -8.726562 1.363281 -9.507812 2.09375 -10.125 C 2.820312 -10.738281 3.890625 -11.046875 5.296875 -11.046875 C 6.265625 -11.046875 7.113281 -10.890625 7.84375 -10.578125 C 8.570312 -10.273438 9.132812 -9.816406 9.53125 -9.203125 L 7.5625 -7.796875 C 7.09375 -8.515625 6.328125 -8.875 5.265625 -8.875 C 4.710938 -8.875 4.296875 -8.78125 4.015625 -8.59375 C 3.734375 -8.40625 3.59375 -8.164062 3.59375 -7.875 C 3.59375 -7.59375 3.71875 -7.367188 3.96875 -7.203125 C 4.226562 -7.035156 4.726562 -6.863281 5.46875 -6.6875 C 6.695312 -6.382812 7.570312 -6.082031 8.09375 -5.78125 C 8.613281 -5.488281 9.003906 -5.117188 9.265625 -4.671875 C 9.535156 -4.234375 9.671875 -3.695312 9.671875 -3.0625 Z M 9.671875 -3.0625 "/></g></g><g style="fill:#c1ff72;fill-opacity:1;"><g transform="translate(201.534384, 228.043886)"><path style="stroke:none" d="M 7.875 -3.859375 C 7.875 -2.359375 7.492188 -1.285156 6.734375 -0.640625 C 5.984375 -0.00390625 4.804688 0.3125 3.203125 0.3125 C 2.859375 0.3125 2.375 0.257812 1.75 0.15625 C 1.125 0.0625 0.609375 -0.0664062 0.203125 -0.234375 L 1.078125 -2.796875 C 1.296875 -2.679688 1.644531 -2.554688 2.125 -2.421875 C 2.613281 -2.296875 2.992188 -2.234375 3.265625 -2.234375 C 3.765625 -2.234375 4.128906 -2.300781 4.359375 -2.4375 C 4.585938 -2.582031 4.75 -2.820312 4.84375 -3.15625 C 4.9375 -3.5 4.984375 -3.992188 4.984375 -4.640625 L 4.984375 -14.15625 L 7.875 -14.15625 Z M 7.875 -3.859375 "/></g></g><g style="fill:#c1ff72;fill-opacity:1;"><g transform="translate(210.987844, 228.043886)"><path style="stroke:none" d="M 12.734375 0 L 12.734375 -9.515625 L 9.34375 -3.59375 L 7.671875 -3.59375 L 4.3125 -9.515625 L 4.3125 0 L 1.53125 0 L 1.53125 -14.15625 L 4.859375 -14.15625 L 8.546875 -7.4375 L 12.28125 -14.15625 L 15.53125 -14.15625 L 15.53125 0 Z M 12.734375 0 "/></g></g></g></svg>