<svg xmlns="http://www.w3.org/2000/svg" xmlns:xlink="http://www.w3.org/1999/xlink" width="500" zoomAndPan="magnify" viewBox="0 0 375 374.999991" height="500" preserveAspectRatio="xMidYMid meet" version="1.2"><defs><clipPath id="b41518496e"><path d="M 131.222656 106.261719 L 188 106.261719 L 188 237 L 131.222656 237 Z M 131.222656 106.261719 "/></clipPath><clipPath id="7b8da6e6d9"><path d="M 187 138 L 243.722656 138 L 243.722656 269 L 187 269 Z M 187 138 "/></clipPath></defs><g id="6b4298b1df"><rect x="0" width="375" y="0" height="374.999991" style="fill:#ffffff;fill-opacity:1;stroke:none;"/><rect x="0" width="375" y="0" height="374.999991" style="fill:#000000;fill-opacity:1;stroke:none;"/><g clip-rule="nonzero" clip-path="url(#b41518496e)"><path style=" stroke:none;fill-rule:evenodd;fill:#a7f545;fill-opacity:1;" d="M 187.472656 106.292969 L 187.472656 138.769531 L 159.347656 155.007812 L 159.347656 187.480469 L 187.472656 203.71875 L 187.472656 236.195312 L 131.222656 203.71875 L 131.222656 138.769531 Z M 187.472656 106.292969 "/></g><g clip-rule="nonzero" clip-path="url(#7b8da6e6d9)"><path style=" stroke:none;fill-rule:evenodd;fill:#66aa11;fill-opacity:1;" d="M 187.472656 171.242188 L 215.597656 187.480469 L 215.597656 219.957031 L 187.472656 236.195312 L 187.472656 268.667969 L 243.722656 236.195312 L 243.722656 171.242188 L 187.472656 138.769531 Z M 187.472656 171.242188 "/></g><path style=" stroke:none;fill-rule:evenodd;fill:#a7f545;fill-opacity:1;" d="M 205.050781 116.441406 L 205.050781 140.796875 L 226.148438 152.976562 L 226.148438 128.621094 Z M 205.050781 116.441406 "/></g></svg>