<svg xmlns="http://www.w3.org/2000/svg" xmlns:xlink="http://www.w3.org/1999/xlink" width="500" zoomAndPan="magnify" viewBox="0 0 375 374.999991" height="500" preserveAspectRatio="xMidYMid meet" version="1.2"><defs><clipPath id="80113848c9"><path d="M 49.472656 90 L 325 90 L 325 246 L 49.472656 246 Z M 49.472656 90 "/></clipPath></defs><g id="a5e77279f6"><rect x="0" width="375" y="0" height="374.999991" style="fill:#ffffff;fill-opacity:1;stroke:none;"/><rect x="0" width="375" y="0" height="374.999991" style="fill:#000000;fill-opacity:1;stroke:none;"/><g clip-rule="nonzero" clip-path="url(#80113848c9)"><path style=" stroke:none;fill-rule:nonzero;fill:#c1ff72;fill-opacity:1;" d="M 179.855469 218.046875 L 189.867188 228.945312 C 164.589844 251.855469 125.382812 250.109375 102.261719 224.953125 L 49.472656 167.503906 L 95.371094 125.484375 C 120.632812 102.265625 160.078125 103.925781 183.304688 129.195312 L 204.210938 151.945312 L 193.3125 161.953125 L 172.40625 139.203125 C 154.707031 119.945312 124.640625 118.675781 105.378906 136.375 L 70.777344 168.179688 C 70.597656 168.339844 70.585938 168.617188 70.746094 168.792969 L 113.15625 214.9375 C 130.757812 234.085938 160.585938 235.441406 179.855469 218.046875 Z M 225.121094 174.691406 L 204.214844 151.9375 L 193.320312 161.949219 L 214.226562 184.699219 C 225.757812 197.246094 245.335938 198.070312 257.882812 186.542969 L 280.632812 165.636719 L 249.125 131.347656 C 237.695312 118.914062 218.355469 118.007812 205.800781 129.230469 L 215.816406 140.125 C 222.363281 134.425781 232.324219 134.933594 238.230469 141.363281 L 259.433594 164.433594 C 259.59375 164.609375 259.582031 164.886719 259.410156 165.050781 L 247.875 175.652344 C 241.339844 181.65625 231.132812 181.226562 225.121094 174.691406 Z M 272.195312 110.148438 C 249.078125 84.988281 209.867188 83.242188 184.59375 106.15625 L 194.601562 117.050781 C 213.875 99.660156 243.699219 101.015625 261.300781 120.164062 L 303.707031 166.304688 C 303.867188 166.484375 303.855469 166.761719 303.679688 166.921875 L 269.074219 198.726562 C 249.816406 216.421875 219.75 215.15625 202.046875 195.894531 L 160.234375 150.394531 C 148.703125 137.847656 129.121094 137.023438 116.578125 148.550781 L 93.828125 169.457031 L 125.335938 203.746094 C 136.765625 216.179688 156.101562 217.085938 168.660156 205.867188 L 158.652344 194.96875 C 152.105469 200.667969 142.140625 200.160156 136.234375 193.730469 L 115.03125 170.660156 C 114.871094 170.484375 114.882812 170.207031 115.0625 170.046875 L 126.597656 159.441406 C 133.132812 153.429688 143.339844 153.863281 149.347656 160.40625 L 170.257812 183.15625 L 174.34375 179.398438 L 170.257812 183.15625 L 191.164062 205.90625 C 214.378906 231.167969 253.832031 232.835938 279.09375 209.617188 L 324.996094 167.597656 Z M 272.195312 110.148438 "/></g><g style="fill:#c1ff72;fill-opacity:1;"><g transform="translate(144.951287, 306.765009)"><path style="stroke:none" d="M 13.390625 1.078125 C 9.773438 1.078125 6.882812 0.222656 4.71875 -1.484375 C 2.550781 -3.203125 1.210938 -5.582031 0.703125 -8.625 L 7.640625 -10.9375 C 7.921875 -9.175781 8.546875 -7.800781 9.515625 -6.8125 C 10.492188 -5.820312 11.722656 -5.328125 13.203125 -5.328125 C 14.585938 -5.328125 15.664062 -5.78125 16.4375 -6.6875 C 17.207031 -7.601562 17.59375 -8.878906 17.59375 -10.515625 L 17.640625 -33.59375 L 25.703125 -33.59375 L 25.703125 -10.046875 C 25.703125 -6.523438 24.609375 -3.789062 22.421875 -1.84375 C 20.242188 0.101562 17.234375 1.078125 13.390625 1.078125 Z M 13.390625 1.078125 "/></g></g><g style="fill:#c1ff72;fill-opacity:1;"><g transform="translate(172.773487, 306.765009)"><path style="stroke:none" d="M 5.65625 0.515625 C 4.4375 0.515625 3.425781 0.128906 2.625 -0.640625 C 1.820312 -1.410156 1.421875 -2.40625 1.421875 -3.625 C 1.421875 -4.820312 1.820312 -5.804688 2.625 -6.578125 C 3.425781 -7.347656 4.4375 -7.734375 5.65625 -7.734375 C 6.914062 -7.734375 7.945312 -7.347656 8.75 -6.578125 C 9.550781 -5.804688 9.953125 -4.820312 9.953125 -3.625 C 9.953125 -2.40625 9.550781 -1.410156 8.75 -0.640625 C 7.945312 0.128906 6.914062 0.515625 5.65625 0.515625 Z M 5.65625 0.515625 "/></g></g><g style="fill:#ffffff;fill-opacity:1;"><g transform="translate(184.138785, 306.765009)"><path style="stroke:none" d="M 2.59375 0 L 2.59375 -33.59375 L 13.109375 -33.59375 L 22.921875 -9.015625 L 23.015625 -9.015625 L 32.875 -33.59375 L 43.296875 -33.59375 L 43.296875 0 L 35.890625 0 L 35.890625 -23.578125 L 35.796875 -23.578125 L 26.234375 0 L 19.671875 0 L 10.046875 -23.53125 L 9.953125 -23.53125 L 9.953125 0 Z M 2.59375 0 "/></g></g></g></svg>