<svg xmlns="http://www.w3.org/2000/svg" xmlns:xlink="http://www.w3.org/1999/xlink" width="500" zoomAndPan="magnify" viewBox="0 0 375 374.999991" height="500" preserveAspectRatio="xMidYMid meet" version="1.2"><defs><clipPath id="2b3ac03d61"><path d="M 88.554688 117.144531 L 252.804688 117.144531 L 252.804688 246.894531 L 88.554688 246.894531 Z M 88.554688 117.144531 "/></clipPath></defs><g id="93c94795c4"><g clip-rule="nonzero" clip-path="url(#2b3ac03d61)"><path style=" stroke:none;fill-rule:evenodd;fill:#c1ff72;fill-opacity:1;" d="M 104.167969 199.613281 L 98.816406 204.964844 L 129.539062 235.707031 L 160.257812 204.964844 L 154.90625 199.613281 L 129.539062 224.980469 Z M 129.539062 153.722656 L 165.167969 189.351562 L 160.28125 194.238281 L 170.542969 204.5 L 170.074219 204.964844 L 170.542969 205.429688 L 129.539062 246.4375 L 88.554688 205.429688 L 89.019531 204.964844 L 88.554688 204.5 L 98.816406 194.238281 L 93.90625 189.351562 Z M 129.539062 117.179688 L 191.253906 178.75 L 252.804688 117.179688 L 252.804688 240.320312 L 232.511719 240.320312 L 232.511719 166.753906 L 191.253906 207.84375 L 129.539062 145.808594 Z M 129.539062 117.179688 "/></g></g></svg>