<svg xmlns="http://www.w3.org/2000/svg" xmlns:xlink="http://www.w3.org/1999/xlink" width="500" zoomAndPan="magnify" viewBox="0 0 375 374.999991" height="500" preserveAspectRatio="xMidYMid meet" version="1.2"><defs><clipPath id="7146dd8a1e"><path d="M 47.324219 91.210938 L 327.824219 91.210938 L 327.824219 273.460938 L 47.324219 273.460938 Z M 47.324219 91.210938 "/></clipPath><clipPath id="22ab5b0e87"><path d="M 174 212 L 342 212 L 342 287 L 174 287 Z M 174 212 "/></clipPath><clipPath id="48ffd74ea4"><path d="M 173.125 259.753906 L 334.367188 210.945312 L 342.867188 239.027344 L 181.625 287.835938 Z M 173.125 259.753906 "/></clipPath><clipPath id="811923e8e5"><path d="M 177.429688 258.453125 L 330.046875 212.253906 C 331.1875 211.910156 332.421875 212.03125 333.472656 212.59375 C 334.527344 213.15625 335.3125 214.117188 335.65625 215.257812 L 341.550781 234.722656 C 341.894531 235.867188 341.773438 237.101562 341.210938 238.152344 C 340.648438 239.203125 339.6875 239.988281 338.546875 240.335938 L 185.929688 286.53125 C 184.789062 286.878906 183.554688 286.753906 182.503906 286.191406 C 181.449219 285.628906 180.664062 284.671875 180.320312 283.527344 L 174.425781 264.0625 C 174.082031 262.917969 174.203125 261.6875 174.765625 260.632812 C 175.332031 259.582031 176.289062 258.796875 177.429688 258.453125 Z M 177.429688 258.453125 "/></clipPath><clipPath id="e354abcdc8"><path d="M 200 259 L 210 259 L 210 270 L 200 270 Z M 200 259 "/></clipPath><clipPath id="39538b9772"><path d="M 173.125 259.753906 L 334.636719 210.867188 L 343.109375 238.859375 L 181.597656 287.75 Z M 173.125 259.753906 "/></clipPath><clipPath id="229d24cd9c"><path d="M 209 257 L 218 257 L 218 267 L 209 267 Z M 209 257 "/></clipPath><clipPath id="94a03eb57d"><path d="M 173.125 259.753906 L 334.636719 210.867188 L 343.109375 238.859375 L 181.597656 287.75 Z M 173.125 259.753906 "/></clipPath><clipPath id="d60cec3ab4"><path d="M 217 255 L 225 255 L 225 265 L 217 265 Z M 217 255 "/></clipPath><clipPath id="40adb3ae03"><path d="M 173.125 259.753906 L 334.636719 210.867188 L 343.109375 238.859375 L 181.597656 287.75 Z M 173.125 259.753906 "/></clipPath><clipPath id="5931b7d99b"><path d="M 224 252 L 234 252 L 234 263 L 224 263 Z M 224 252 "/></clipPath><clipPath id="4d6975db8b"><path d="M 173.125 259.753906 L 334.636719 210.867188 L 343.109375 238.859375 L 181.597656 287.75 Z M 173.125 259.753906 "/></clipPath><clipPath id="eb251e9bc8"><path d="M 233 250 L 242 250 L 242 260 L 233 260 Z M 233 250 "/></clipPath><clipPath id="74e9e412e8"><path d="M 173.125 259.753906 L 334.636719 210.867188 L 343.109375 238.859375 L 181.597656 287.75 Z M 173.125 259.753906 "/></clipPath><clipPath id="14f1881aca"><path d="M 242 247 L 251 247 L 251 257 L 242 257 Z M 242 247 "/></clipPath><clipPath id="2261eae7fb"><path d="M 173.125 259.753906 L 334.636719 210.867188 L 343.109375 238.859375 L 181.597656 287.75 Z M 173.125 259.753906 "/></clipPath><clipPath id="2f59b1cfe1"><path d="M 250 244 L 260 244 L 260 255 L 250 255 Z M 250 244 "/></clipPath><clipPath id="a3fcacd5ac"><path d="M 173.125 259.753906 L 334.636719 210.867188 L 343.109375 238.859375 L 181.597656 287.75 Z M 173.125 259.753906 "/></clipPath><clipPath id="b374c22139"><path d="M 260 242 L 268 242 L 268 252 L 260 252 Z M 260 242 "/></clipPath><clipPath id="f5cb520c67"><path d="M 173.125 259.753906 L 334.636719 210.867188 L 343.109375 238.859375 L 181.597656 287.75 Z M 173.125 259.753906 "/></clipPath><clipPath id="f0253965ae"><path d="M 267 240 L 275 240 L 275 250 L 267 250 Z M 267 240 "/></clipPath><clipPath id="a8e839c77b"><path d="M 173.125 259.753906 L 334.636719 210.867188 L 343.109375 238.859375 L 181.597656 287.75 Z M 173.125 259.753906 "/></clipPath><clipPath id="7ab27a129d"><path d="M 274 237 L 283 237 L 283 248 L 274 248 Z M 274 237 "/></clipPath><clipPath id="8726a7e208"><path d="M 173.125 259.753906 L 334.636719 210.867188 L 343.109375 238.859375 L 181.597656 287.75 Z M 173.125 259.753906 "/></clipPath><clipPath id="deb3f83bca"><path d="M 284 244 L 285 244 L 285 245 L 284 245 Z M 284 244 "/></clipPath><clipPath id="f598dcc45f"><path d="M 173.125 259.753906 L 334.636719 210.867188 L 343.109375 238.859375 L 181.597656 287.75 Z M 173.125 259.753906 "/></clipPath><clipPath id="ec981f2227"><path d="M 286 232 L 300 232 L 300 244 L 286 244 Z M 286 232 "/></clipPath><clipPath id="7efc32da10"><path d="M 173.125 259.753906 L 334.636719 210.867188 L 343.109375 238.859375 L 181.597656 287.75 Z M 173.125 259.753906 "/></clipPath><clipPath id="f66787b6ad"><path d="M 299 230 L 307 230 L 307 240 L 299 240 Z M 299 230 "/></clipPath><clipPath id="1155adf4f4"><path d="M 173.125 259.753906 L 334.636719 210.867188 L 343.109375 238.859375 L 181.597656 287.75 Z M 173.125 259.753906 "/></clipPath><clipPath id="9538dfa278"><path d="M 307 227 L 316 227 L 316 238 L 307 238 Z M 307 227 "/></clipPath><clipPath id="d16bac4da7"><path d="M 173.125 259.753906 L 334.636719 210.867188 L 343.109375 238.859375 L 181.597656 287.75 Z M 173.125 259.753906 "/></clipPath><clipPath id="03b6aa4b66"><path d="M 322 224 L 362 224 L 362 257 L 322 257 Z M 322 224 "/></clipPath><clipPath id="f76c49a37f"><path d="M 319.539062 228.667969 L 358.347656 220.0625 L 365.8125 253.746094 L 327.003906 262.347656 Z M 319.539062 228.667969 "/></clipPath><clipPath id="7c8d6e58eb"><path d="M 319.539062 228.667969 L 358.347656 220.0625 L 365.8125 253.746094 L 327.003906 262.347656 Z M 319.539062 228.667969 "/></clipPath><clipPath id="ceca47320f"><path d="M 319.539062 228.667969 L 358.347656 220.0625 L 365.8125 253.746094 L 327.003906 262.347656 Z M 319.539062 228.667969 "/></clipPath><clipPath id="d54f538b06"><path d="M 321 222 L 363 222 L 363 258 L 321 258 Z M 321 222 "/></clipPath><clipPath id="89ebd82cd0"><path d="M 319.539062 228.667969 L 358.347656 220.0625 L 365.8125 253.746094 L 327.003906 262.347656 Z M 319.539062 228.667969 "/></clipPath><clipPath id="76e696dfcb"><path d="M 319.539062 228.667969 L 358.347656 220.0625 L 365.8125 253.746094 L 327.003906 262.347656 Z M 319.539062 228.667969 "/></clipPath><clipPath id="f0352c6825"><path d="M 319.539062 228.667969 L 358.347656 220.0625 L 365.8125 253.746094 L 327.003906 262.347656 Z M 319.539062 228.667969 "/></clipPath><clipPath id="d80b727d27"><path d="M 319.550781 228.664062 L 358.332031 220.066406 L 365.796875 253.753906 L 327.019531 262.351562 Z M 319.550781 228.664062 "/></clipPath></defs><g id="0ad7cc512b"><g clip-rule="nonzero" clip-path="url(#7146dd8a1e)"><path style=" stroke:none;fill-rule:nonzero;fill:#ffffff;fill-opacity:1;" d="M 72.125 97 C 70.859375 97 69.832031 98.027344 69.832031 99.292969 C 69.832031 100.558594 70.859375 101.582031 72.125 101.582031 C 73.390625 101.582031 74.414062 100.558594 74.414062 99.292969 C 74.414062 98.027344 73.390625 97 72.125 97 Z M 64.511719 96.917969 C 63.25 96.917969 62.222656 97.945312 62.222656 99.210938 C 62.222656 100.472656 63.25 101.5 64.511719 101.5 C 65.777344 101.5 66.804688 100.472656 66.804688 99.210938 C 66.804688 97.945312 65.777344 96.917969 64.511719 96.917969 Z M 56.902344 96.839844 C 55.636719 96.839844 54.609375 97.863281 54.609375 99.128906 C 54.609375 100.394531 55.636719 101.417969 56.902344 101.417969 C 58.167969 101.417969 59.195312 100.394531 59.195312 99.128906 C 59.195312 97.863281 58.167969 96.839844 56.902344 96.839844 Z M 49.128906 105.425781 L 326.054688 105.425781 L 326.054688 97.964844 C 326.054688 95.132812 323.75 92.828125 320.921875 92.828125 L 54.261719 92.828125 C 51.433594 92.828125 49.128906 95.132812 49.128906 97.964844 Z M 327.691406 107.0625 L 47.492188 107.0625 L 47.492188 97.964844 C 47.492188 94.230469 50.53125 91.195312 54.261719 91.195312 L 320.921875 91.195312 C 324.652344 91.195312 327.691406 94.230469 327.691406 97.964844 Z M 54.199219 92.828125 C 51.367188 92.828125 49.066406 95.132812 49.066406 97.964844 L 49.066406 263.746094 C 49.066406 268.191406 52.683594 271.808594 57.132812 271.808594 L 318.050781 271.808594 C 322.5 271.808594 326.121094 268.191406 326.121094 263.746094 L 326.121094 97.964844 C 326.121094 95.132812 323.816406 92.828125 320.984375 92.828125 Z M 318.050781 273.445312 L 57.132812 273.445312 C 51.78125 273.445312 47.429688 269.09375 47.429688 263.746094 L 47.429688 97.964844 C 47.429688 94.230469 50.464844 91.195312 54.199219 91.195312 L 320.984375 91.195312 C 324.71875 91.195312 327.753906 94.230469 327.753906 97.964844 L 327.753906 263.746094 C 327.753906 269.09375 323.402344 273.445312 318.050781 273.445312 "/></g><g style="fill:#c1ff72;fill-opacity:1;"><g transform="translate(64.920924, 161.708529)"><path style="stroke:none" d="M 0.5 -11.1875 L 8.953125 -11.1875 C 8.953125 -8.257812 10.441406 -6.796875 13.421875 -6.796875 C 16.429688 -6.796875 17.9375 -8.257812 17.9375 -11.1875 L 17.9375 -23.421875 L 2.53125 -23.421875 L 2.53125 -30.8125 L 26.375 -30.8125 L 26.375 -11.1875 C 26.375 -7.445312 25.289062 -4.539062 23.125 -2.46875 C 20.957031 -0.394531 17.722656 0.640625 13.421875 0.640625 C 9.171875 0.640625 5.96875 -0.394531 3.8125 -2.46875 C 1.664062 -4.539062 0.5625 -7.445312 0.5 -11.1875 Z M 0.5 -11.1875 "/></g></g><g style="fill:#c1ff72;fill-opacity:1;"><g transform="translate(93.57417, 161.708529)"><path style="stroke:none" d="M 27.140625 0 L 2.53125 0 L 2.53125 -30.8125 L 26.421875 -30.8125 L 26.421875 -23.640625 L 10.84375 -23.640625 L 10.84375 -19.125 L 24.90625 -19.125 L 24.90625 -12.03125 L 10.84375 -12.03125 L 10.84375 -7.21875 L 27.140625 -7.21875 Z M 27.140625 0 "/></g></g><g style="fill:#c1ff72;fill-opacity:1;"><g transform="translate(121.636638, 161.708529)"><path style="stroke:none" d="M 0.765625 -10.515625 L 9.28125 -10.515625 C 9.445312 -9.640625 9.738281 -8.890625 10.15625 -8.265625 C 10.582031 -7.648438 11.242188 -7.1875 12.140625 -6.875 C 13.046875 -6.570312 14.273438 -6.421875 15.828125 -6.421875 C 17.398438 -6.421875 18.613281 -6.546875 19.46875 -6.796875 C 20.332031 -7.046875 20.9375 -7.367188 21.28125 -7.765625 C 21.632812 -8.160156 21.8125 -8.554688 21.8125 -8.953125 C 21.8125 -9.398438 21.664062 -9.804688 21.375 -10.171875 C 21.082031 -10.535156 20.421875 -10.894531 19.390625 -11.25 C 18.367188 -11.601562 16.757812 -11.945312 14.5625 -12.28125 C 11.101562 -12.84375 8.410156 -13.570312 6.484375 -14.46875 C 4.554688 -15.375 3.203125 -16.457031 2.421875 -17.71875 C 1.648438 -18.988281 1.265625 -20.441406 1.265625 -22.078125 C 1.265625 -23.816406 1.742188 -25.394531 2.703125 -26.8125 C 3.660156 -28.238281 5.132812 -29.363281 7.125 -30.1875 C 9.125 -31.019531 11.703125 -31.4375 14.859375 -31.4375 C 18.148438 -31.4375 20.835938 -30.960938 22.921875 -30.015625 C 25.003906 -29.078125 26.570312 -27.785156 27.625 -26.140625 C 28.675781 -24.492188 29.285156 -22.601562 29.453125 -20.46875 L 21.015625 -20.46875 C 20.847656 -21.707031 20.347656 -22.671875 19.515625 -23.359375 C 18.691406 -24.046875 17.207031 -24.390625 15.0625 -24.390625 C 12.957031 -24.390625 11.515625 -24.128906 10.734375 -23.609375 C 9.960938 -23.085938 9.578125 -22.519531 9.578125 -21.90625 C 9.578125 -21.476562 9.742188 -21.066406 10.078125 -20.671875 C 10.421875 -20.285156 11.144531 -19.90625 12.25 -19.53125 C 13.363281 -19.164062 15.0625 -18.800781 17.34375 -18.4375 C 20.632812 -17.957031 23.207031 -17.273438 25.0625 -16.390625 C 26.925781 -15.503906 28.242188 -14.425781 29.015625 -13.15625 C 29.785156 -11.894531 30.171875 -10.421875 30.171875 -8.734375 C 30.171875 -6.992188 29.6875 -5.410156 28.71875 -3.984375 C 27.75 -2.566406 26.226562 -1.441406 24.15625 -0.609375 C 22.09375 0.222656 19.398438 0.640625 16.078125 0.640625 C 12.535156 0.640625 9.671875 0.175781 7.484375 -0.75 C 5.304688 -1.6875 3.679688 -2.988281 2.609375 -4.65625 C 1.546875 -6.332031 0.929688 -8.285156 0.765625 -10.515625 Z M 0.765625 -10.515625 "/></g></g><g style="fill:#c1ff72;fill-opacity:1;"><g transform="translate(152.737443, 161.708529)"><path style="stroke:none" d="M 2.0625 -11.90625 L 2.0625 -30.8125 L 10.515625 -30.8125 L 10.515625 -12.953125 C 10.515625 -10.929688 10.988281 -9.410156 11.9375 -8.390625 C 12.894531 -7.378906 14.234375 -6.875 15.953125 -6.875 C 17.609375 -6.875 18.925781 -7.375 19.90625 -8.375 C 20.894531 -9.375 21.390625 -10.898438 21.390625 -12.953125 L 21.390625 -30.8125 L 29.84375 -30.8125 L 29.84375 -11.90625 C 29.84375 -9.375 29.304688 -7.171875 28.234375 -5.296875 C 27.160156 -3.421875 25.585938 -1.960938 23.515625 -0.921875 C 21.453125 0.117188 18.929688 0.640625 15.953125 0.640625 C 12.972656 0.640625 10.445312 0.117188 8.375 -0.921875 C 6.3125 -1.960938 4.742188 -3.421875 3.671875 -5.296875 C 2.597656 -7.171875 2.0625 -9.375 2.0625 -11.90625 Z M 2.0625 -11.90625 "/></g></g><g style="fill:#c1ff72;fill-opacity:1;"><g transform="translate(184.640032, 161.708529)"><path style="stroke:none" d="M 0.765625 -10.515625 L 9.28125 -10.515625 C 9.445312 -9.640625 9.738281 -8.890625 10.15625 -8.265625 C 10.582031 -7.648438 11.242188 -7.1875 12.140625 -6.875 C 13.046875 -6.570312 14.273438 -6.421875 15.828125 -6.421875 C 17.398438 -6.421875 18.613281 -6.546875 19.46875 -6.796875 C 20.332031 -7.046875 20.9375 -7.367188 21.28125 -7.765625 C 21.632812 -8.160156 21.8125 -8.554688 21.8125 -8.953125 C 21.8125 -9.398438 21.664062 -9.804688 21.375 -10.171875 C 21.082031 -10.535156 20.421875 -10.894531 19.390625 -11.25 C 18.367188 -11.601562 16.757812 -11.945312 14.5625 -12.28125 C 11.101562 -12.84375 8.410156 -13.570312 6.484375 -14.46875 C 4.554688 -15.375 3.203125 -16.457031 2.421875 -17.71875 C 1.648438 -18.988281 1.265625 -20.441406 1.265625 -22.078125 C 1.265625 -23.816406 1.742188 -25.394531 2.703125 -26.8125 C 3.660156 -28.238281 5.132812 -29.363281 7.125 -30.1875 C 9.125 -31.019531 11.703125 -31.4375 14.859375 -31.4375 C 18.148438 -31.4375 20.835938 -30.960938 22.921875 -30.015625 C 25.003906 -29.078125 26.570312 -27.785156 27.625 -26.140625 C 28.675781 -24.492188 29.285156 -22.601562 29.453125 -20.46875 L 21.015625 -20.46875 C 20.847656 -21.707031 20.347656 -22.671875 19.515625 -23.359375 C 18.691406 -24.046875 17.207031 -24.390625 15.0625 -24.390625 C 12.957031 -24.390625 11.515625 -24.128906 10.734375 -23.609375 C 9.960938 -23.085938 9.578125 -22.519531 9.578125 -21.90625 C 9.578125 -21.476562 9.742188 -21.066406 10.078125 -20.671875 C 10.421875 -20.285156 11.144531 -19.90625 12.25 -19.53125 C 13.363281 -19.164062 15.0625 -18.800781 17.34375 -18.4375 C 20.632812 -17.957031 23.207031 -17.273438 25.0625 -16.390625 C 26.925781 -15.503906 28.242188 -14.425781 29.015625 -13.15625 C 29.785156 -11.894531 30.171875 -10.421875 30.171875 -8.734375 C 30.171875 -6.992188 29.6875 -5.410156 28.71875 -3.984375 C 27.75 -2.566406 26.226562 -1.441406 24.15625 -0.609375 C 22.09375 0.222656 19.398438 0.640625 16.078125 0.640625 C 12.535156 0.640625 9.671875 0.175781 7.484375 -0.75 C 5.304688 -1.6875 3.679688 -2.988281 2.609375 -4.65625 C 1.546875 -6.332031 0.929688 -8.285156 0.765625 -10.515625 Z M 0.765625 -10.515625 "/></g></g><g style="fill:#c1ff72;fill-opacity:1;"><g transform="translate(215.740838, 161.708529)"><path style="stroke:none" d=""/></g></g><g style="fill:#c1ff72;fill-opacity:1;"><g transform="translate(227.978599, 161.708529)"><path style="stroke:none" d="M 0.5 -11.1875 L 8.953125 -11.1875 C 8.953125 -8.257812 10.441406 -6.796875 13.421875 -6.796875 C 16.429688 -6.796875 17.9375 -8.257812 17.9375 -11.1875 L 17.9375 -23.421875 L 2.53125 -23.421875 L 2.53125 -30.8125 L 26.375 -30.8125 L 26.375 -11.1875 C 26.375 -7.445312 25.289062 -4.539062 23.125 -2.46875 C 20.957031 -0.394531 17.722656 0.640625 13.421875 0.640625 C 9.171875 0.640625 5.96875 -0.394531 3.8125 -2.46875 C 1.664062 -4.539062 0.5625 -7.445312 0.5 -11.1875 Z M 0.5 -11.1875 "/></g></g><g style="fill:#c1ff72;fill-opacity:1;"><g transform="translate(256.631845, 161.708529)"><path style="stroke:none" d="M 20.171875 -12.65625 L 27.046875 -30.8125 L 37.765625 -30.8125 L 37.765625 0 L 29.546875 0 L 29.546875 -18.5625 L 22.328125 0 L 17.9375 0 L 10.765625 -18.609375 L 10.765625 0 L 2.53125 0 L 2.53125 -30.8125 L 13.25 -30.8125 Z M 20.171875 -12.65625 "/></g></g><g style="fill:#ffffff;fill-opacity:1;"><g transform="translate(64.920924, 198.803896)"><path style="stroke:none" d="M 12.859375 -6.578125 L 8.984375 -6.578125 L 8.984375 -9.9375 L 17.609375 -9.9375 L 17.609375 0 L 15.515625 0 L 13.9375 -4.46875 C 13.59375 -2.925781 12.882812 -1.738281 11.8125 -0.90625 C 10.738281 -0.0703125 9.4375 0.34375 7.90625 0.34375 C 6.5 0.34375 5.242188 0.015625 4.140625 -0.640625 C 3.046875 -1.304688 2.175781 -2.257812 1.53125 -3.5 C 0.894531 -4.738281 0.578125 -6.210938 0.578125 -7.921875 L 0.578125 -9 C 0.578125 -10.738281 0.925781 -12.234375 1.625 -13.484375 C 2.320312 -14.742188 3.320312 -15.710938 4.625 -16.390625 C 5.9375 -17.078125 7.503906 -17.421875 9.328125 -17.421875 C 11.054688 -17.421875 12.519531 -17.128906 13.71875 -16.546875 C 14.914062 -15.972656 15.835938 -15.210938 16.484375 -14.265625 C 17.140625 -13.316406 17.515625 -12.273438 17.609375 -11.140625 L 12.625 -11.140625 C 12.53125 -11.722656 12.210938 -12.238281 11.671875 -12.6875 C 11.128906 -13.132812 10.316406 -13.359375 9.234375 -13.359375 C 8.054688 -13.359375 7.109375 -12.976562 6.390625 -12.21875 C 5.679688 -11.46875 5.328125 -10.359375 5.328125 -8.890625 L 5.328125 -8.1875 C 5.328125 -6.71875 5.675781 -5.609375 6.375 -4.859375 C 7.082031 -4.117188 8.015625 -3.75 9.171875 -3.75 C 9.890625 -3.75 10.507812 -3.882812 11.03125 -4.15625 C 11.5625 -4.425781 11.984375 -4.773438 12.296875 -5.203125 C 12.609375 -5.628906 12.796875 -6.085938 12.859375 -6.578125 Z M 12.859375 -6.578125 "/></g></g><g style="fill:#ffffff;fill-opacity:1;"><g transform="translate(83.471685, 198.803896)"><path style="stroke:none" d="M 1.140625 -6.59375 L 1.140625 -17.078125 L 5.828125 -17.078125 L 5.828125 -7.1875 C 5.828125 -6.0625 6.09375 -5.21875 6.625 -4.65625 C 7.15625 -4.09375 7.894531 -3.8125 8.84375 -3.8125 C 9.757812 -3.8125 10.488281 -4.085938 11.03125 -4.640625 C 11.582031 -5.191406 11.859375 -6.039062 11.859375 -7.1875 L 11.859375 -17.078125 L 16.53125 -17.078125 L 16.53125 -6.59375 C 16.53125 -5.1875 16.234375 -3.960938 15.640625 -2.921875 C 15.054688 -1.890625 14.191406 -1.085938 13.046875 -0.515625 C 11.898438 0.0546875 10.5 0.34375 8.84375 0.34375 C 7.1875 0.34375 5.785156 0.0546875 4.640625 -0.515625 C 3.492188 -1.085938 2.625 -1.890625 2.03125 -2.921875 C 1.4375 -3.960938 1.140625 -5.1875 1.140625 -6.59375 Z M 1.140625 -6.59375 "/></g></g><g style="fill:#ffffff;fill-opacity:1;"><g transform="translate(101.156903, 198.803896)"><path style="stroke:none" d="M 6.109375 -17.078125 L 6.109375 0 L 1.421875 0 L 1.421875 -17.078125 Z M 6.109375 -17.078125 "/></g></g><g style="fill:#ffffff;fill-opacity:1;"><g transform="translate(108.689494, 198.803896)"><path style="stroke:none" d="M 0.421875 -5.828125 L 5.140625 -5.828125 C 5.234375 -5.335938 5.394531 -4.921875 5.625 -4.578125 C 5.863281 -4.234375 6.234375 -3.976562 6.734375 -3.8125 C 7.234375 -3.644531 7.910156 -3.5625 8.765625 -3.5625 C 9.640625 -3.5625 10.316406 -3.628906 10.796875 -3.765625 C 11.273438 -3.898438 11.609375 -4.078125 11.796875 -4.296875 C 11.992188 -4.515625 12.09375 -4.734375 12.09375 -4.953125 C 12.09375 -5.203125 12.007812 -5.425781 11.84375 -5.625 C 11.6875 -5.832031 11.320312 -6.035156 10.75 -6.234375 C 10.175781 -6.429688 9.28125 -6.625 8.0625 -6.8125 C 6.144531 -7.125 4.648438 -7.523438 3.578125 -8.015625 C 2.515625 -8.515625 1.769531 -9.113281 1.34375 -9.8125 C 0.914062 -10.519531 0.703125 -11.328125 0.703125 -12.234375 C 0.703125 -13.203125 0.96875 -14.078125 1.5 -14.859375 C 2.03125 -15.648438 2.847656 -16.273438 3.953125 -16.734375 C 5.054688 -17.191406 6.484375 -17.421875 8.234375 -17.421875 C 10.054688 -17.421875 11.546875 -17.160156 12.703125 -16.640625 C 13.859375 -16.117188 14.726562 -15.398438 15.3125 -14.484375 C 15.894531 -13.578125 16.234375 -12.53125 16.328125 -11.34375 L 11.65625 -11.34375 C 11.5625 -12.03125 11.28125 -12.5625 10.8125 -12.9375 C 10.351562 -13.320312 9.53125 -13.515625 8.34375 -13.515625 C 7.175781 -13.515625 6.378906 -13.367188 5.953125 -13.078125 C 5.523438 -12.796875 5.3125 -12.484375 5.3125 -12.140625 C 5.3125 -11.898438 5.40625 -11.671875 5.59375 -11.453125 C 5.78125 -11.242188 6.179688 -11.035156 6.796875 -10.828125 C 7.410156 -10.628906 8.347656 -10.425781 9.609375 -10.21875 C 11.429688 -9.957031 12.859375 -9.578125 13.890625 -9.078125 C 14.921875 -8.585938 15.648438 -7.992188 16.078125 -7.296875 C 16.503906 -6.597656 16.71875 -5.78125 16.71875 -4.84375 C 16.71875 -3.875 16.445312 -2.992188 15.90625 -2.203125 C 15.375 -1.421875 14.535156 -0.800781 13.390625 -0.34375 C 12.242188 0.113281 10.75 0.34375 8.90625 0.34375 C 6.945312 0.34375 5.363281 0.0859375 4.15625 -0.421875 C 2.945312 -0.929688 2.046875 -1.648438 1.453125 -2.578125 C 0.859375 -3.503906 0.515625 -4.585938 0.421875 -5.828125 Z M 0.421875 -5.828125 "/></g></g><g style="fill:#ffffff;fill-opacity:1;"><g transform="translate(125.930242, 198.803896)"><path style="stroke:none" d="M 1.140625 -6.59375 L 1.140625 -17.078125 L 5.828125 -17.078125 L 5.828125 -7.1875 C 5.828125 -6.0625 6.09375 -5.21875 6.625 -4.65625 C 7.15625 -4.09375 7.894531 -3.8125 8.84375 -3.8125 C 9.757812 -3.8125 10.488281 -4.085938 11.03125 -4.640625 C 11.582031 -5.191406 11.859375 -6.039062 11.859375 -7.1875 L 11.859375 -17.078125 L 16.53125 -17.078125 L 16.53125 -6.59375 C 16.53125 -5.1875 16.234375 -3.960938 15.640625 -2.921875 C 15.054688 -1.890625 14.191406 -1.085938 13.046875 -0.515625 C 11.898438 0.0546875 10.5 0.34375 8.84375 0.34375 C 7.1875 0.34375 5.785156 0.0546875 4.640625 -0.515625 C 3.492188 -1.085938 2.625 -1.890625 2.03125 -2.921875 C 1.4375 -3.960938 1.140625 -5.1875 1.140625 -6.59375 Z M 1.140625 -6.59375 "/></g></g><g style="fill:#ffffff;fill-opacity:1;"><g transform="translate(143.615459, 198.803896)"><path style="stroke:none" d="M 0.421875 -5.828125 L 5.140625 -5.828125 C 5.234375 -5.335938 5.394531 -4.921875 5.625 -4.578125 C 5.863281 -4.234375 6.234375 -3.976562 6.734375 -3.8125 C 7.234375 -3.644531 7.910156 -3.5625 8.765625 -3.5625 C 9.640625 -3.5625 10.316406 -3.628906 10.796875 -3.765625 C 11.273438 -3.898438 11.609375 -4.078125 11.796875 -4.296875 C 11.992188 -4.515625 12.09375 -4.734375 12.09375 -4.953125 C 12.09375 -5.203125 12.007812 -5.425781 11.84375 -5.625 C 11.6875 -5.832031 11.320312 -6.035156 10.75 -6.234375 C 10.175781 -6.429688 9.28125 -6.625 8.0625 -6.8125 C 6.144531 -7.125 4.648438 -7.523438 3.578125 -8.015625 C 2.515625 -8.515625 1.769531 -9.113281 1.34375 -9.8125 C 0.914062 -10.519531 0.703125 -11.328125 0.703125 -12.234375 C 0.703125 -13.203125 0.96875 -14.078125 1.5 -14.859375 C 2.03125 -15.648438 2.847656 -16.273438 3.953125 -16.734375 C 5.054688 -17.191406 6.484375 -17.421875 8.234375 -17.421875 C 10.054688 -17.421875 11.546875 -17.160156 12.703125 -16.640625 C 13.859375 -16.117188 14.726562 -15.398438 15.3125 -14.484375 C 15.894531 -13.578125 16.234375 -12.53125 16.328125 -11.34375 L 11.65625 -11.34375 C 11.5625 -12.03125 11.28125 -12.5625 10.8125 -12.9375 C 10.351562 -13.320312 9.53125 -13.515625 8.34375 -13.515625 C 7.175781 -13.515625 6.378906 -13.367188 5.953125 -13.078125 C 5.523438 -12.796875 5.3125 -12.484375 5.3125 -12.140625 C 5.3125 -11.898438 5.40625 -11.671875 5.59375 -11.453125 C 5.78125 -11.242188 6.179688 -11.035156 6.796875 -10.828125 C 7.410156 -10.628906 8.347656 -10.425781 9.609375 -10.21875 C 11.429688 -9.957031 12.859375 -9.578125 13.890625 -9.078125 C 14.921875 -8.585938 15.648438 -7.992188 16.078125 -7.296875 C 16.503906 -6.597656 16.71875 -5.78125 16.71875 -4.84375 C 16.71875 -3.875 16.445312 -2.992188 15.90625 -2.203125 C 15.375 -1.421875 14.535156 -0.800781 13.390625 -0.34375 C 12.242188 0.113281 10.75 0.34375 8.90625 0.34375 C 6.945312 0.34375 5.363281 0.0859375 4.15625 -0.421875 C 2.945312 -0.929688 2.046875 -1.648438 1.453125 -2.578125 C 0.859375 -3.503906 0.515625 -4.585938 0.421875 -5.828125 Z M 0.421875 -5.828125 "/></g></g><g style="fill:#ffffff;fill-opacity:1;"><g transform="translate(160.856207, 198.803896)"><path style="stroke:none" d="M 13.3125 -7.1875 L 16 -7.1875 L 16 -3.4375 L 13.3125 -3.4375 L 13.3125 0 L 8.765625 0 L 8.765625 -3.4375 L 0.046875 -3.4375 L 0.046875 -6.671875 L 7.921875 -17.078125 L 13.3125 -17.078125 Z M 8.765625 -12.515625 L 4.703125 -7.1875 L 8.765625 -7.1875 Z M 8.765625 -12.515625 "/></g></g><g style="fill:#ffffff;fill-opacity:1;"><g transform="translate(176.997478, 198.803896)"><path style="stroke:none" d="M 17.78125 0 L 12.375 0 L 8.25 -7.53125 L 5.96875 -4.484375 L 5.96875 0 L 1.40625 0 L 1.40625 -17.078125 L 5.96875 -17.078125 L 5.96875 -9.921875 L 11.515625 -17.078125 L 17.421875 -17.078125 L 11.90625 -10.296875 Z M 17.78125 0 "/></g></g><g clip-rule="nonzero" clip-path="url(#22ab5b0e87)"><g clip-rule="nonzero" clip-path="url(#48ffd74ea4)"><g clip-rule="nonzero" clip-path="url(#811923e8e5)"><path style=" stroke:none;fill-rule:nonzero;fill:#c1ff72;fill-opacity:1;" d="M 173.125 259.753906 L 334.367188 210.945312 L 342.867188 239.027344 L 181.625 287.835938 Z M 173.125 259.753906 "/></g></g></g><g clip-rule="nonzero" clip-path="url(#e354abcdc8)"><g clip-rule="nonzero" clip-path="url(#39538b9772)"><g style="fill:#000000;fill-opacity:1;"><g transform="translate(202.060786, 269.802392)"><path style="stroke:none" d="M 1.203125 -8.828125 C 1.742188 -8.984375 2.234375 -9.09375 2.671875 -9.15625 C 3.117188 -9.226562 3.523438 -9.210938 3.890625 -9.109375 C 4.265625 -9.003906 4.59375 -8.769531 4.875 -8.40625 C 5.164062 -8.039062 5.421875 -7.5 5.640625 -6.78125 L 6.09375 -5.265625 C 6.28125 -4.660156 6.378906 -4.140625 6.390625 -3.703125 C 6.398438 -3.265625 6.3125 -2.890625 6.125 -2.578125 C 5.945312 -2.265625 5.644531 -1.988281 5.21875 -1.75 C 4.789062 -1.507812 4.234375 -1.285156 3.546875 -1.078125 L 1.0625 -0.328125 L -1.28125 -8.078125 Z M 5.015625 -4.90625 L 4.546875 -6.46875 C 4.410156 -6.90625 4.238281 -7.265625 4.03125 -7.546875 C 3.832031 -7.828125 3.546875 -8.003906 3.171875 -8.078125 C 2.804688 -8.148438 2.289062 -8.085938 1.625 -7.890625 L 0.109375 -7.4375 L 1.859375 -1.625 L 3.375 -2.078125 C 3.851562 -2.222656 4.242188 -2.394531 4.546875 -2.59375 C 4.859375 -2.800781 5.054688 -3.085938 5.140625 -3.453125 C 5.234375 -3.816406 5.191406 -4.300781 5.015625 -4.90625 Z M 5.015625 -4.90625 "/></g></g></g></g><g clip-rule="nonzero" clip-path="url(#229d24cd9c)"><g clip-rule="nonzero" clip-path="url(#94a03eb57d)"><g style="fill:#000000;fill-opacity:1;"><g transform="translate(211.26439, 267.016473)"><path style="stroke:none" d="M 1.0625 -0.328125 L -1.28125 -8.078125 L 3.421875 -9.5 L 3.71875 -8.53125 L 0.125 -7.4375 L 0.9375 -4.734375 L 4.28125 -5.75 L 4.5625 -4.8125 L 1.21875 -3.796875 L 1.875 -1.625 L 5.515625 -2.734375 L 5.8125 -1.765625 Z M 1.0625 -0.328125 "/></g></g></g></g><g clip-rule="nonzero" clip-path="url(#d60cec3ab4)"><g clip-rule="nonzero" clip-path="url(#40adb3ae03)"><g style="fill:#000000;fill-opacity:1;"><g transform="translate(218.999313, 264.675122)"><path style="stroke:none" d="M 0.4375 -0.390625 L 0.265625 -1.296875 C 0.597656 -1.328125 1.003906 -1.382812 1.484375 -1.46875 C 1.960938 -1.550781 2.398438 -1.648438 2.796875 -1.765625 C 3.273438 -1.910156 3.613281 -2.097656 3.8125 -2.328125 C 4.019531 -2.554688 4.046875 -2.921875 3.890625 -3.421875 C 3.804688 -3.710938 3.703125 -3.921875 3.578125 -4.046875 C 3.453125 -4.179688 3.285156 -4.269531 3.078125 -4.3125 C 2.867188 -4.351562 2.609375 -4.363281 2.296875 -4.34375 L 1.34375 -4.375 C 0.71875 -4.332031 0.191406 -4.445312 -0.234375 -4.71875 C -0.671875 -4.988281 -0.976562 -5.414062 -1.15625 -6 C -1.351562 -6.675781 -1.320312 -7.238281 -1.0625 -7.6875 C -0.800781 -8.132812 -0.285156 -8.472656 0.484375 -8.703125 C 0.878906 -8.828125 1.257812 -8.925781 1.625 -9 C 2 -9.070312 2.4375 -9.109375 2.9375 -9.109375 L 3.140625 -8.234375 C 2.734375 -8.203125 2.335938 -8.148438 1.953125 -8.078125 C 1.578125 -8.003906 1.253906 -7.925781 0.984375 -7.84375 C 0.515625 -7.695312 0.191406 -7.507812 0.015625 -7.28125 C -0.160156 -7.0625 -0.179688 -6.726562 -0.046875 -6.28125 C 0.0664062 -5.925781 0.238281 -5.695312 0.46875 -5.59375 C 0.707031 -5.5 1.003906 -5.460938 1.359375 -5.484375 L 2.421875 -5.453125 C 2.878906 -5.453125 3.269531 -5.410156 3.59375 -5.328125 C 3.914062 -5.242188 4.191406 -5.082031 4.421875 -4.84375 C 4.660156 -4.613281 4.84375 -4.285156 4.96875 -3.859375 C 5.21875 -3.023438 5.179688 -2.367188 4.859375 -1.890625 C 4.546875 -1.421875 3.96875 -1.0625 3.125 -0.8125 C 2.625 -0.65625 2.164062 -0.550781 1.75 -0.5 C 1.332031 -0.445312 0.894531 -0.410156 0.4375 -0.390625 Z M 0.4375 -0.390625 "/></g></g></g></g><g clip-rule="nonzero" clip-path="url(#5931b7d99b)"><g clip-rule="nonzero" clip-path="url(#4d6975db8b)"><g style="fill:#000000;fill-opacity:1;"><g transform="translate(226.504753, 262.403235)"><path style="stroke:none" d="M 5.640625 -1.703125 L 4.640625 -3.328125 L 1.265625 -2.3125 L 1.3125 -0.390625 L 0.203125 -0.0625 L -0.078125 -8.4375 L 2.359375 -9.171875 L 6.765625 -2.046875 Z M 1.21875 -3.359375 L 4.09375 -4.21875 L 1.765625 -7.953125 L 1.0625 -7.75 Z M 1.21875 -3.359375 "/></g></g></g></g><g clip-rule="nonzero" clip-path="url(#eb251e9bc8)"><g clip-rule="nonzero" clip-path="url(#74e9e412e8)"><g style="fill:#000000;fill-opacity:1;"><g transform="translate(234.893696, 259.863913)"><path style="stroke:none" d="M 5 -7.125 C 5.195312 -6.488281 5.226562 -5.972656 5.09375 -5.578125 C 4.96875 -5.179688 4.632812 -4.863281 4.09375 -4.625 L 4.109375 -4.5625 C 5.140625 -4.726562 5.796875 -4.351562 6.078125 -3.4375 L 6.515625 -1.96875 L 5.4375 -1.640625 L 5.046875 -2.9375 C 4.910156 -3.375 4.6875 -3.648438 4.375 -3.765625 C 4.0625 -3.878906 3.707031 -3.878906 3.3125 -3.765625 L 1.390625 -3.1875 L 2.15625 -0.65625 L 1.0625 -0.328125 L -1.28125 -8.078125 L 1.96875 -9.046875 C 2.757812 -9.296875 3.378906 -9.316406 3.828125 -9.109375 C 4.273438 -8.898438 4.617188 -8.40625 4.859375 -7.625 Z M 0.109375 -7.4375 L 1.109375 -4.125 L 3.03125 -4.703125 C 3.488281 -4.835938 3.804688 -5.035156 3.984375 -5.296875 C 4.160156 -5.554688 4.160156 -5.976562 3.984375 -6.5625 L 3.796875 -7.171875 C 3.648438 -7.648438 3.453125 -7.945312 3.203125 -8.0625 C 2.953125 -8.1875 2.570312 -8.175781 2.0625 -8.03125 Z M 0.109375 -7.4375 "/></g></g></g></g><g clip-rule="nonzero" clip-path="url(#14f1881aca)"><g clip-rule="nonzero" clip-path="url(#2261eae7fb)"><g style="fill:#000000;fill-opacity:1;"><g transform="translate(243.638336, 257.216922)"><path style="stroke:none" d="M 5 -7.125 C 5.195312 -6.488281 5.226562 -5.972656 5.09375 -5.578125 C 4.96875 -5.179688 4.632812 -4.863281 4.09375 -4.625 L 4.109375 -4.5625 C 5.140625 -4.726562 5.796875 -4.351562 6.078125 -3.4375 L 6.515625 -1.96875 L 5.4375 -1.640625 L 5.046875 -2.9375 C 4.910156 -3.375 4.6875 -3.648438 4.375 -3.765625 C 4.0625 -3.878906 3.707031 -3.878906 3.3125 -3.765625 L 1.390625 -3.1875 L 2.15625 -0.65625 L 1.0625 -0.328125 L -1.28125 -8.078125 L 1.96875 -9.046875 C 2.757812 -9.296875 3.378906 -9.316406 3.828125 -9.109375 C 4.273438 -8.898438 4.617188 -8.40625 4.859375 -7.625 Z M 0.109375 -7.4375 L 1.109375 -4.125 L 3.03125 -4.703125 C 3.488281 -4.835938 3.804688 -5.035156 3.984375 -5.296875 C 4.160156 -5.554688 4.160156 -5.976562 3.984375 -6.5625 L 3.796875 -7.171875 C 3.648438 -7.648438 3.453125 -7.945312 3.203125 -8.0625 C 2.953125 -8.1875 2.570312 -8.175781 2.0625 -8.03125 Z M 0.109375 -7.4375 "/></g></g></g></g><g clip-rule="nonzero" clip-path="url(#2f59b1cfe1)"><g clip-rule="nonzero" clip-path="url(#a3fcacd5ac)"><g style="fill:#000000;fill-opacity:1;"><g transform="translate(252.382976, 254.569932)"><path style="stroke:none" d="M -0.25 -3.40625 L -0.671875 -4.796875 C -0.796875 -5.234375 -0.890625 -5.65625 -0.953125 -6.0625 C -1.023438 -6.476562 -1.003906 -6.867188 -0.890625 -7.234375 C -0.773438 -7.609375 -0.523438 -7.941406 -0.140625 -8.234375 C 0.234375 -8.535156 0.800781 -8.800781 1.5625 -9.03125 C 2.3125 -9.257812 2.929688 -9.351562 3.421875 -9.3125 C 3.910156 -9.269531 4.300781 -9.128906 4.59375 -8.890625 C 4.894531 -8.648438 5.128906 -8.335938 5.296875 -7.953125 C 5.472656 -7.566406 5.625 -7.160156 5.75 -6.734375 L 6.171875 -5.34375 C 6.347656 -4.78125 6.457031 -4.28125 6.5 -3.84375 C 6.550781 -3.414062 6.503906 -3.03125 6.359375 -2.6875 C 6.210938 -2.34375 5.945312 -2.035156 5.5625 -1.765625 C 5.1875 -1.503906 4.65625 -1.269531 3.96875 -1.0625 C 3.28125 -0.851562 2.695312 -0.75 2.21875 -0.75 C 1.75 -0.757812 1.367188 -0.867188 1.078125 -1.078125 C 0.785156 -1.296875 0.535156 -1.597656 0.328125 -1.984375 C 0.117188 -2.367188 -0.0703125 -2.84375 -0.25 -3.40625 Z M 0.875 -3.6875 C 1 -3.289062 1.125 -2.957031 1.25 -2.6875 C 1.375 -2.414062 1.53125 -2.207031 1.71875 -2.0625 C 1.914062 -1.914062 2.171875 -1.835938 2.484375 -1.828125 C 2.796875 -1.828125 3.191406 -1.898438 3.671875 -2.046875 C 4.296875 -2.234375 4.734375 -2.453125 4.984375 -2.703125 C 5.234375 -2.960938 5.351562 -3.269531 5.34375 -3.625 C 5.34375 -3.988281 5.257812 -4.4375 5.09375 -4.96875 L 4.640625 -6.46875 C 4.546875 -6.78125 4.4375 -7.066406 4.3125 -7.328125 C 4.195312 -7.597656 4.039062 -7.816406 3.84375 -7.984375 C 3.65625 -8.148438 3.398438 -8.242188 3.078125 -8.265625 C 2.753906 -8.296875 2.34375 -8.234375 1.84375 -8.078125 C 1.332031 -7.921875 0.945312 -7.742188 0.6875 -7.546875 C 0.4375 -7.359375 0.28125 -7.140625 0.21875 -6.890625 C 0.15625 -6.648438 0.148438 -6.382812 0.203125 -6.09375 C 0.253906 -5.8125 0.328125 -5.507812 0.421875 -5.1875 Z M 0.875 -3.6875 "/></g></g></g></g><g clip-rule="nonzero" clip-path="url(#b374c22139)"><g clip-rule="nonzero" clip-path="url(#f5cb520c67)"><g style="fill:#000000;fill-opacity:1;"><g transform="translate(261.67838, 251.756225)"><path style="stroke:none" d="M 1.0625 -0.328125 L -1.28125 -8.078125 L -0.1875 -8.40625 L 1.859375 -1.625 L 5.171875 -2.625 L 5.46875 -1.65625 Z M 1.0625 -0.328125 "/></g></g></g></g><g clip-rule="nonzero" clip-path="url(#f0253965ae)"><g clip-rule="nonzero" clip-path="url(#a8e839c77b)"><g style="fill:#000000;fill-opacity:1;"><g transform="translate(268.667494, 249.64063)"><path style="stroke:none" d="M 1.0625 -0.328125 L -1.28125 -8.078125 L -0.1875 -8.40625 L 1.859375 -1.625 L 5.171875 -2.625 L 5.46875 -1.65625 Z M 1.0625 -0.328125 "/></g></g></g></g><g clip-rule="nonzero" clip-path="url(#7ab27a129d)"><g clip-rule="nonzero" clip-path="url(#8726a7e208)"><g style="fill:#000000;fill-opacity:1;"><g transform="translate(275.656608, 247.525034)"><path style="stroke:none" d="M -0.25 -3.40625 L -0.671875 -4.796875 C -0.796875 -5.234375 -0.890625 -5.65625 -0.953125 -6.0625 C -1.023438 -6.476562 -1.003906 -6.867188 -0.890625 -7.234375 C -0.773438 -7.609375 -0.523438 -7.941406 -0.140625 -8.234375 C 0.234375 -8.535156 0.800781 -8.800781 1.5625 -9.03125 C 2.3125 -9.257812 2.929688 -9.351562 3.421875 -9.3125 C 3.910156 -9.269531 4.300781 -9.128906 4.59375 -8.890625 C 4.894531 -8.648438 5.128906 -8.335938 5.296875 -7.953125 C 5.472656 -7.566406 5.625 -7.160156 5.75 -6.734375 L 6.171875 -5.34375 C 6.347656 -4.78125 6.457031 -4.28125 6.5 -3.84375 C 6.550781 -3.414062 6.503906 -3.03125 6.359375 -2.6875 C 6.210938 -2.34375 5.945312 -2.035156 5.5625 -1.765625 C 5.1875 -1.503906 4.65625 -1.269531 3.96875 -1.0625 C 3.28125 -0.851562 2.695312 -0.75 2.21875 -0.75 C 1.75 -0.757812 1.367188 -0.867188 1.078125 -1.078125 C 0.785156 -1.296875 0.535156 -1.597656 0.328125 -1.984375 C 0.117188 -2.367188 -0.0703125 -2.84375 -0.25 -3.40625 Z M 0.875 -3.6875 C 1 -3.289062 1.125 -2.957031 1.25 -2.6875 C 1.375 -2.414062 1.53125 -2.207031 1.71875 -2.0625 C 1.914062 -1.914062 2.171875 -1.835938 2.484375 -1.828125 C 2.796875 -1.828125 3.191406 -1.898438 3.671875 -2.046875 C 4.296875 -2.234375 4.734375 -2.453125 4.984375 -2.703125 C 5.234375 -2.960938 5.351562 -3.269531 5.34375 -3.625 C 5.34375 -3.988281 5.257812 -4.4375 5.09375 -4.96875 L 4.640625 -6.46875 C 4.546875 -6.78125 4.4375 -7.066406 4.3125 -7.328125 C 4.195312 -7.597656 4.039062 -7.816406 3.84375 -7.984375 C 3.65625 -8.148438 3.398438 -8.242188 3.078125 -8.265625 C 2.753906 -8.296875 2.34375 -8.234375 1.84375 -8.078125 C 1.332031 -7.921875 0.945312 -7.742188 0.6875 -7.546875 C 0.4375 -7.359375 0.28125 -7.140625 0.21875 -6.890625 C 0.15625 -6.648438 0.148438 -6.382812 0.203125 -6.09375 C 0.253906 -5.8125 0.328125 -5.507812 0.421875 -5.1875 Z M 0.875 -3.6875 "/></g></g></g></g><g clip-rule="nonzero" clip-path="url(#deb3f83bca)"><g clip-rule="nonzero" clip-path="url(#f598dcc45f)"><g style="fill:#000000;fill-opacity:1;"><g transform="translate(284.952012, 244.711328)"><path style="stroke:none" d=""/></g></g></g></g><g clip-rule="nonzero" clip-path="url(#ec981f2227)"><g clip-rule="nonzero" clip-path="url(#7efc32da10)"><g style="fill:#000000;fill-opacity:1;"><g transform="translate(288.808695, 243.543915)"><path style="stroke:none" d="M 7.140625 -10.625 L 8.25 -10.953125 L 8.9375 -2.703125 L 6.75 -2.046875 L 3.671875 -8.21875 L 3.21875 -8.09375 L 4.078125 -1.234375 L 1.875 -0.5625 L -2.140625 -7.8125 L -1.03125 -8.140625 L 2.40625 -1.921875 L 2.859375 -2.0625 L 2.03125 -9.078125 L 4.09375 -9.703125 L 7.3125 -3.421875 L 7.75 -3.546875 Z M 7.140625 -10.625 "/></g></g></g></g><g clip-rule="nonzero" clip-path="url(#f66787b6ad)"><g clip-rule="nonzero" clip-path="url(#1155adf4f4)"><g style="fill:#000000;fill-opacity:1;"><g transform="translate(301.029984, 239.844547)"><path style="stroke:none" d="M 1.0625 -0.328125 L -1.28125 -8.078125 L 3.421875 -9.5 L 3.71875 -8.53125 L 0.125 -7.4375 L 0.9375 -4.734375 L 4.28125 -5.75 L 4.5625 -4.8125 L 1.21875 -3.796875 L 1.875 -1.625 L 5.515625 -2.734375 L 5.8125 -1.765625 Z M 1.0625 -0.328125 "/></g></g></g></g><g clip-rule="nonzero" clip-path="url(#9538dfa278)"><g clip-rule="nonzero" clip-path="url(#d16bac4da7)"><g style="fill:#000000;fill-opacity:1;"><g transform="translate(308.764906, 237.503196)"><path style="stroke:none" d="M 3.96875 -5.328125 C 5.007812 -5.472656 5.671875 -5.082031 5.953125 -4.15625 L 6.046875 -3.875 C 6.242188 -3.21875 6.191406 -2.679688 5.890625 -2.265625 C 5.597656 -1.859375 5.054688 -1.535156 4.265625 -1.296875 L 1.078125 -0.328125 L -1.265625 -8.078125 L 1.65625 -8.953125 C 2.289062 -9.148438 2.835938 -9.171875 3.296875 -9.015625 C 3.753906 -8.867188 4.082031 -8.476562 4.28125 -7.84375 L 4.34375 -7.609375 C 4.46875 -7.210938 4.515625 -6.820312 4.484375 -6.4375 C 4.453125 -6.0625 4.265625 -5.742188 3.921875 -5.484375 Z M 1.84375 -7.984375 L 0.109375 -7.453125 L 0.875 -4.921875 L 2.59375 -5.4375 C 2.945312 -5.550781 3.195312 -5.71875 3.34375 -5.9375 C 3.5 -6.164062 3.492188 -6.546875 3.328125 -7.078125 L 3.25 -7.34375 C 3.050781 -7.988281 2.582031 -8.203125 1.84375 -7.984375 Z M 4.890625 -3.671875 L 4.796875 -4 C 4.703125 -4.3125 4.535156 -4.535156 4.296875 -4.671875 C 4.054688 -4.804688 3.6875 -4.796875 3.1875 -4.640625 L 1.15625 -4.03125 L 1.890625 -1.59375 L 3.84375 -2.1875 C 4.757812 -2.46875 5.109375 -2.960938 4.890625 -3.671875 Z M 4.890625 -3.671875 "/></g></g></g></g><g clip-rule="nonzero" clip-path="url(#03b6aa4b66)"><g clip-rule="nonzero" clip-path="url(#f76c49a37f)"><g clip-rule="nonzero" clip-path="url(#7c8d6e58eb)"><g clip-rule="nonzero" clip-path="url(#ceca47320f)"><path style=" stroke:none;fill-rule:nonzero;fill:#ffffff;fill-opacity:1;" d="M 350.109375 256.140625 C 348.21875 256.558594 346.21875 256.53125 344.328125 256.058594 L 339.738281 254.90625 L 334.757812 253.601562 C 333.074219 253.15625 332.054688 251.417969 332.488281 249.722656 C 332.570312 249.394531 332.699219 249.09375 332.871094 248.820312 C 333.316406 248.109375 334.039062 247.597656 334.851562 247.417969 C 335.335938 247.308594 335.84375 247.320312 336.324219 247.445312 L 338.859375 248.113281 L 323.765625 238.480469 C 322.292969 237.542969 321.847656 235.578125 322.769531 234.097656 C 322.777344 234.085938 322.804688 234.042969 322.804688 234.042969 C 323.246094 233.363281 323.933594 232.890625 324.734375 232.710938 C 325.5625 232.527344 326.457031 232.6875 327.179688 233.148438 L 333.253906 237.023438 C 332.605469 236.011719 332.550781 234.675781 333.226562 233.597656 L 333.257812 233.546875 C 333.699219 232.867188 334.386719 232.394531 335.1875 232.214844 C 336.019531 232.03125 336.910156 232.191406 337.632812 232.652344 L 337.882812 232.8125 C 337.226562 231.804688 337.144531 230.476562 337.78125 229.410156 L 337.8125 229.359375 C 338.265625 228.636719 338.96875 228.140625 339.796875 227.957031 C 340.613281 227.777344 341.453125 227.925781 342.160156 228.375 L 343.085938 228.96875 C 342.429688 227.960938 342.351562 226.632812 342.992188 225.566406 C 343 225.546875 343.015625 225.527344 343.027344 225.507812 C 343.476562 224.789062 344.179688 224.296875 345.003906 224.113281 C 345.820312 223.933594 346.660156 224.082031 347.367188 224.53125 L 355.269531 229.574219 L 355.734375 229.871094 C 355.742188 229.875 356.308594 230.246094 356.578125 230.476562 C 359.867188 233.019531 361.613281 236.871094 361.5 241.328125 C 361.457031 242.984375 361.117188 244.59375 360.488281 246.113281 C 360.210938 246.792969 359.863281 247.46875 359.460938 248.117188 L 357.871094 250.664062 C 357.796875 250.777344 357.722656 250.890625 357.652344 251 C 355.902344 253.625 353.222656 255.449219 350.109375 256.140625 "/></g></g></g></g><g clip-rule="nonzero" clip-path="url(#d54f538b06)"><g clip-rule="nonzero" clip-path="url(#89ebd82cd0)"><g clip-rule="nonzero" clip-path="url(#76e696dfcb)"><g clip-rule="nonzero" clip-path="url(#f0352c6825)"><g clip-rule="nonzero" clip-path="url(#d80b727d27)"><path style=" stroke:none;fill-rule:nonzero;fill:#000000;fill-opacity:1;" d="M 344.773438 223.070312 L 344.769531 223.070312 C 343.675781 223.316406 342.742188 223.972656 342.140625 224.925781 C 342.113281 224.964844 342.09375 224.996094 342.085938 225.011719 C 341.730469 225.605469 341.53125 226.265625 341.496094 226.941406 C 340.871094 226.785156 340.210938 226.773438 339.566406 226.914062 C 338.460938 227.160156 337.523438 227.824219 336.917969 228.789062 L 336.902344 228.820312 L 336.886719 228.839844 L 336.878906 228.855469 C 336.46875 229.539062 336.265625 230.308594 336.285156 231.09375 C 335.839844 231.050781 335.390625 231.078125 334.957031 231.175781 C 333.886719 231.410156 332.972656 232.042969 332.378906 232.949219 C 332.375 232.957031 332.367188 232.964844 332.363281 232.976562 L 332.347656 232.996094 L 332.328125 233.027344 C 331.988281 233.574219 331.785156 234.175781 331.714844 234.78125 L 327.742188 232.246094 C 326.78125 231.636719 325.601562 231.425781 324.5 231.671875 C 323.433594 231.910156 322.515625 232.542969 321.921875 233.453125 L 321.898438 233.488281 L 321.894531 233.496094 C 321.886719 233.507812 321.878906 233.519531 321.871094 233.53125 C 320.644531 235.507812 321.238281 238.128906 323.203125 239.382812 L 334.300781 246.460938 C 333.34375 246.757812 332.511719 247.394531 331.976562 248.25 C 331.75 248.617188 331.574219 249.015625 331.464844 249.441406 L 331.464844 249.449219 L 331.460938 249.453125 C 330.886719 251.71875 332.246094 254.042969 334.496094 254.632812 L 339.476562 255.9375 L 339.5 255.945312 L 344.078125 257.09375 C 346.125 257.605469 348.289062 257.636719 350.339844 257.179688 C 353.71875 256.429688 356.625 254.449219 358.527344 251.601562 L 358.527344 251.597656 L 358.53125 251.597656 C 358.609375 251.476562 358.6875 251.355469 358.761719 251.238281 L 358.765625 251.234375 L 360.355469 248.6875 C 360.789062 247.992188 361.164062 247.261719 361.464844 246.523438 C 362.144531 244.882812 362.511719 243.144531 362.558594 241.359375 C 362.679688 236.558594 360.789062 232.398438 357.238281 229.644531 C 356.886719 229.351562 356.308594 228.976562 356.300781 228.972656 L 356.296875 228.96875 L 355.828125 228.671875 L 354.027344 227.523438 L 347.929688 223.632812 C 346.984375 223.027344 345.863281 222.828125 344.773438 223.070312 Z M 345.234375 225.152344 C 345.753906 225.039062 346.320312 225.121094 346.804688 225.433594 L 352.902344 229.320312 L 354.707031 230.472656 L 355.175781 230.773438 C 355.332031 230.871094 355.78125 231.183594 355.914062 231.300781 C 359.136719 233.78125 360.542969 237.421875 360.441406 241.296875 C 360.40625 242.785156 360.101562 244.277344 359.515625 245.699219 C 359.253906 246.332031 358.9375 246.949219 358.566406 247.546875 L 356.976562 250.09375 C 356.90625 250.199219 356.839844 250.304688 356.769531 250.40625 C 355.132812 252.863281 352.636719 254.488281 349.878906 255.097656 C 348.167969 255.476562 346.351562 255.46875 344.578125 255.023438 L 340 253.875 L 335.019531 252.570312 C 333.898438 252.273438 333.222656 251.121094 333.511719 249.992188 C 333.566406 249.773438 333.652344 249.570312 333.765625 249.390625 C 334.066406 248.910156 334.542969 248.578125 335.085938 248.457031 C 335.398438 248.390625 335.730469 248.390625 336.0625 248.476562 L 340.246094 249.578125 L 340.480469 249.636719 C 340.613281 249.671875 340.734375 249.671875 340.84375 249.648438 C 341.042969 249.605469 341.199219 249.480469 341.300781 249.316406 C 341.503906 248.992188 341.476562 248.523438 341.070312 248.261719 L 324.328125 237.582031 C 323.347656 236.957031 323.050781 235.648438 323.667969 234.664062 C 323.671875 234.652344 323.679688 234.640625 323.6875 234.628906 C 323.992188 234.164062 324.457031 233.867188 324.964844 233.753906 C 325.511719 233.632812 326.109375 233.726562 326.617188 234.046875 L 340.523438 242.917969 C 340.734375 243.054688 340.980469 243.089844 341.210938 243.039062 C 341.425781 242.992188 341.625 242.859375 341.761719 242.664062 C 341.765625 242.65625 341.773438 242.644531 341.777344 242.636719 C 342.046875 242.207031 341.886719 241.617188 341.453125 241.34375 L 334.78125 237.085938 C 333.800781 236.460938 333.503906 235.152344 334.121094 234.167969 C 334.128906 234.15625 334.132812 234.144531 334.140625 234.132812 C 334.445312 233.667969 334.910156 233.371094 335.417969 233.257812 C 335.964844 233.136719 336.5625 233.226562 337.070312 233.550781 L 344.648438 238.386719 C 344.863281 238.523438 345.109375 238.558594 345.335938 238.507812 C 345.554688 238.457031 345.753906 238.328125 345.886719 238.128906 C 345.894531 238.121094 345.898438 238.113281 345.902344 238.105469 C 346.171875 237.675781 346.011719 237.085938 345.582031 236.8125 L 339.425781 232.886719 C 338.449219 232.261719 338.09375 230.957031 338.6875 229.964844 C 338.695312 229.953125 338.703125 229.941406 338.707031 229.929688 C 339.019531 229.433594 339.5 229.113281 340.027344 228.996094 C 340.546875 228.882812 341.113281 228.964844 341.597656 229.277344 L 348.929688 233.953125 C 349.140625 234.085938 349.386719 234.125 349.613281 234.074219 C 349.84375 234.023438 350.050781 233.882812 350.1875 233.667969 C 350.453125 233.238281 350.324219 232.671875 349.898438 232.402344 L 344.632812 229.042969 C 343.65625 228.417969 343.300781 227.113281 343.894531 226.121094 C 343.902344 226.109375 343.910156 226.097656 343.917969 226.085938 C 344.226562 225.589844 344.707031 225.269531 345.234375 225.152344 "/></g></g></g></g></g></g></svg>